<svg width="20" height="20" viewBox="0 0 20 20" fill="none" xmlns="http://www.w3.org/2000/svg">
<path d="M8.33317 17.5451C8.22296 17.4522 8.10171 17.3483 7.96611 17.2321L7.72512 17.0255C7.66911 16.9775 7.6411 16.9535 7.61311 16.9311C7.26302 16.6513 6.83203 16.4919 6.38414 16.4765C6.34833 16.4753 6.31145 16.4753 6.23768 16.4753C5.86206 16.4753 5.67424 16.4753 5.51578 16.4632C3.46497 16.3065 1.83528 14.6768 1.67861 12.626C1.6665 12.4675 1.6665 12.2797 1.6665 11.9041V9.80859C1.6665 7.28474 1.6665 6.02282 2.07882 5.02739C2.62858 3.70016 3.68307 2.64567 5.0103 2.09591C6.00573 1.68359 7.26765 1.68359 9.7915 1.68359H10.2082C12.732 1.68359 13.9939 1.68359 14.9894 2.09591C16.3166 2.64567 17.3711 3.70016 17.9209 5.02739C18.2143 5.7359 18.2989 6.57943 18.3233 7.91691" stroke="#303651" stroke-width="1.5" stroke-linecap="round"/>
<path d="M10.8335 14.5835C10.8335 16.6546 12.5124 18.3335 14.5835 18.3335C16.6546 18.3335 18.3335 16.6546 18.3335 14.5835C18.3335 12.5124 16.6546 10.8335 14.5835 10.8335C12.5124 10.8335 10.8335 12.5124 10.8335 14.5835Z" stroke="#303651" stroke-width="1.5" stroke-linecap="round"/>
<path d="M13.125 14.383L13.6384 14.8964C14.0452 15.3032 14.7048 15.3032 15.1116 14.8964L16.0417 13.9663" stroke="#303651" stroke-width="1.5" stroke-linecap="round"/>
<path d="M7.5 10.8335H8.33333" stroke="#303651" stroke-width="1.5" stroke-linecap="round"/>
<path d="M7.5 7.5H12.5" stroke="#303651" stroke-width="1.5" stroke-linecap="round"/>
</svg>
